<svg xmlns="http://www.w3.org/2000/svg" viewBox="49 51.7 168.6 129">
<!-- SVG created with Arrow, by QuiverAI (https://quiver.ai) -->
  <style type="text/css">.cls-0 {fill:#6A4D47;}
.cls-1 {fill:#F4DA8B;}</style>
  <path class="cls-0" d="m151 64.9c-8.9 0.5-17.7 6.6-19.2 17.1-0.7 5 0.6 13.4 6.7 18.6s12.5 6.9 20.7 5.6 13-7.7 12.6-12.6c-0.5-5.6-5.8-11.6-10.9-11.6-4.6 0-7.7 3.5-7.3 5.5 0.1 0.7 2.1 0.1 4.2 0.5 2.4 0.3 3.5 1.4 3.4 3.9-0.1 2.2-4.2 5.3-11.3 5.9-2.8 0-12.9-0.4-13.2-11.4-0.3-9 8.1-15.8 19.4-15.8 12.1 0.4 21.8 7.3 28.1 22.7 3.2 8.2 2.9 13.4 2.2 19.7-1 7.2-6.7 14.7-14.4 19.5-2.8 1.8-0.5 3.2 3 2 3.1-1.1 6.9-4.8 10.4-9.2 3.1-3.9 5.9-10.5 6.7-16.3 0.9-8.2-1.4-20.6-8-29.9-5.2-7.1-15.3-14.8-26.8-14.6l-6.3 0.4z"/>
  <path d="m78.4 87.1c-4.4 2.2-4.2 9.1-1.8 12.3 2.6 3.4 3.3 2.3 3.6 1.6 0.4-0.8-3.9-4.5-1.8-8.1 1-1.5 2.5-1.7 4.1-1.4 2.7 1 4.2 6.4 4.5 7.2 1.1 0.4 3.6-2.7 3.7-3.1-0.5-3.3-3.4-11.3-10.3-9.2l-2 0.7z" fill="#6A4C46"/>
  <path d="m75.4 118.9c-1.4 1.1 0 6.1 1.4 6.6 1.2 0.3 1.9 0 2.3-0.6 0-1-1-8-3.7-6z" fill="#6A4C46"/>
  <path class="cls-0" d="m98 140.1c-2.2 0.9-4.4 4.8-4.9 5.9-0.8-0.2-3 0-2.1 1.6l1.3 1c-0.4 1.9 0.1 6.4 0.9 8.4 1.2 1.7 3.4 1.2 3.4 0-0.9-9.3 2.9-13.7 5.4-15 0.7-1.4-1.6-2.6-4-1.9z"/>
  <path class="cls-0" d="m103.1 141.9c-1.8 1-6.1 5.8-5.2 15.4 1.1 2.8 9.1 3.5 13.6 3.2 3.1-0.3 4.6-1.5 4.9-3.7 0.5-4.3-3.4-15.1-12.3-15.1h-1v0.2z"/>
  <path class="cls-0" d="m136.2 156.8c-1.3 1.7-1.4 4.3 0.5 5.5 5.9 3.6 16.3 3.2 23.4 1.8 1.8-0.3 1.2-0.5 1.2-1.2 0-1.6-0.9-3-2.5-3.2-2.9 0-17.2 1.3-18.4-1 0.7-3.3 10.2-2 11.2-1.9 0.5-0.6-0.3-2.4-1.6-2.9-1.6-0.4-9.8-2.4-13.8 2.9z"/>
  <path class="cls-1" d="m69.6 105.3c-2.2 1.4-5.6 11.6-5.5 18 0.1 4.4 0.7 7.7 2.1 10.5 2.1 4 5.9 6.7 10 6.8 3.7 0.2 6.9-0.9 11.5-4.5 8.9-7.3 14.7-22.2 14.7-26.4-0.4-0.9-3.8-1.2-6-0.2-2.7 6.7-6.5 17.1-13.7 22.5-4.3 3.1-8.6 3.7-10.8 1.9s-3.5-5.3-3.6-10c0-6.4 2.9-13.2 7.1-18.3 0.6-0.9-2.4-1.1-5.8-0.3z"/>
  <path class="cls-1" d="m97.9 102.2c-0.3 2.8 0 4.9 4.2 6.6 7.4 2.9 12.4 2.9 16.9 3.4 2.1 1.3 5 4.8 5.1 11.2 0.3 8.7-6.1 19.7-6.7 22.7 0.1 1.5 4.2 5.4 6.2 4.9 0.8-0.1 7.9-11.5 7.5-27.2-0.5-5.7-3.4-10.3-3.4-10.3 5.6-0.1 9.9-1.5 10.7-3 0.6-1 0.5-3-0.7-3.9-0.4-0.7-12.2 2.4-15 0.1-5.4-8.2-10.7-11.7-17.2-13.1-0.9-0.1-2-0.2-2.1 0.6-0.5 1.2-0.4 2.5 0.2 3.2 1.1 0.8 4.4 1.2 7.5 3.8 4 2.9 5.3 4.9 5.3 5.2-5-0.2-10.8-2.3-14.9-3.8-2.9-0.7-3.5-0.9-3.6-0.4z"/>
  <path class="cls-1" d="m105.1 111.7-8 18.7c-0.4 1.7 2.6 4.8 3.6 3.7 0.7-0.5 0.7-2.5 2.4-5.1 2-3.6 6.4-9.8 9.9-9.6 4.9 0.2 0.9 7.6-4 16.3-0.5 1.3 4.4 3.4 5.6 2.5 1.4-2.6 6.3-10.3 6.8-15.6 0.3-2.6-0.3-7.2-2.5-8.2-4.3-2-8.4-0.5-8.8 0l-0.5-1.4c-0.1-0.4-4-1.8-4.5-1.3z"/>
  <path class="cls-1" d="m139.9 119.9c-3.2 0.5-6.3 4.8-8.3 10.6-1.1 3-1.5 10.6 1.3 15.2 2.3 2.7 5.7 3 10 0.4 4.2-2.9 6.1-11.1 6.1-16.2-0.1-4.5-3-10.3-9.1-10zm-2.3 20.2c-2.6 0.9-2.8-3.9-2-7.1 0.6-2.5 2.8-5.4 4-5.1 2.5 0.5 2.5 4.7 1.8 7.6-0.4 1.5-2.4 4.2-3.8 4.6z"/>
  <path class="cls-1" d="m175.4 113.9c-8.5-0.4-19.5 2.7-25.3 17.1-2.5 5.7-3.6 17.4 0 21.9 1.3 1.2 1.8 2.7 2.6 4.2 1.3 2.3 6.4 2.6 7.7 2.8 10.2 0 17.5-3.8 20.7-7 1.6-1-0.9-3.7-2.5-6-0.6-0.8-2.2 0.7-3.9 1.7-9.8 5.8-20.5 4-21.3-6.9-0.3-5.3 2.2-13.7 10-18.8 3.2-1.9 6.8-2.5 11-3 1-0.8 1.3-4.9 1-6z"/>
</svg>